<?xml version="1.0" encoding="UTF-8"?>
<svg fill="#354EFF" width="100pt" height="100pt" version="1.1" viewBox="0 0 100 100" xmlns="http://www.w3.org/2000/svg">
 <path d="m50 0c-13.262 0-25.98 5.2695-35.355 14.645s-14.645 22.094-14.645 35.355 5.2695 25.98 14.645 35.355 22.094 14.645 35.355 14.645 25.98-5.2695 35.355-14.645 14.645-22.094 14.645-35.355-5.2695-25.98-14.645-35.355-22.094-14.645-35.355-14.645zm-24.34 36.172c1.2148-2.9297 4.1211-4.793 7.2891-4.6719h17 17c3.1289-0.13281 6.0273 1.6484 7.3203 4.5 0.25781 0.35938 0.32812 0.82031 0.18359 1.2344-0.14453 0.41797-0.48047 0.74219-0.90234 0.86719l-22.551 11.75c-0.57812 0.33203-1.2891 0.33203-1.8711 0l-22.84-11.852c-0.36719-0.10938-0.66016-0.39062-0.78516-0.75391-0.125-0.36328-0.066406-0.76172 0.15625-1.0742zm49.199 25.891v-0.003906c-0.58594 3.75-3.8438 6.4961-7.6406 6.4414h-13.91-20.379c-3.5586 0.078125-6.7109-2.2891-7.6289-5.7305-0.17969-0.65234-0.27344-1.3242-0.28125-2v-16.328c0-1.4102 0.87891-1.9297 2.1484-1.2812 7.1016 3.6914 14.191 7.3945 21.281 11.102 0.97266 0.57422 2.1797 0.57422 3.1523 0 7.0547-3.6992 14.117-7.3672 21.191-11h-0.003907c0.19922-0.11719 0.41797-0.20703 0.64063-0.26172 0.38672-0.13281 0.81641-0.058594 1.1367 0.19922 0.32031 0.25781 0.48438 0.66406 0.43359 1.0703v14.129c0.054688 1.2227 0.007812 2.4492-0.14062 3.6602z"/>
</svg>
