<?xml version="1.0" encoding="UTF-8"?>
<svg fill="#354EFF" width="100pt" height="100pt" version="1.1" viewBox="0 0 100 100" xmlns="http://www.w3.org/2000/svg">
 <path d="m30.332 35.734c1.5-4.2031 7.5078-4.2031 11.41-7.207 1.2031-0.90234 2.4023-2.1016 2.4023-3.9023-0.60156-6.0078-2.7031-15.914-4.8047-19.82-0.60156-1.2031-1.5-2.1016-3.3047-2.1016-5.4062-0.90234-15.016 3.6055-16.516 5.707-23.723 28.828 18.918 96.996 55.254 88.59 2.4023-0.60156 10.812-7.5078 12.613-12.613 0.30078-1.5 0-3.0039-0.60156-3.9023-2.7031-3.6055-10.812-9.9102-15.914-12.914-1.5-0.90234-3.0039-0.30078-4.5039 0.30078-4.5039 2.4023-6.9062 7.8086-11.41 7.207-8.4102-1.2031-27.328-31.23-24.625-39.34z" fill-rule="evenodd"/>
</svg>
